<svg width="24" height="24" viewBox="0 0 24 24" fill="none" xmlns="http://www.w3.org/2000/svg">
<circle cx="9" cy="12" r="1" stroke="#171923" stroke-width="2" stroke-linecap="round" stroke-linejoin="round"/>
<circle cx="15" cy="12" r="1" stroke="#171923" stroke-width="2" stroke-linecap="round" stroke-linejoin="round"/>
<path d="M7.5 7.5C11 6.5 13 6.5 16.5 7.5" stroke="#16132B" stroke-width="2" stroke-linecap="round" stroke-linejoin="round"/>
<path d="M7 16.5C10.5 17.5 13.5 17.5 17 16.5" stroke="#171923" stroke-width="2" stroke-linecap="round" stroke-linejoin="round"/>
<path d="M15.5 17C15.5 18 17 20 17.5 20C19 20 20.333 18.333 21 17C21.667 15.333 21.5 11.167 19.5 5.5C18.043 4.485 16.5 4.16 15 4L14 6.5" stroke="#171923" stroke-width="2" stroke-linecap="round" stroke-linejoin="round"/>
<path d="M8.49999 17C8.49999 18 7.14399 20 6.66799 20C5.23899 20 3.96999 18.333 3.33499 17C2.69999 15.333 2.85899 11.167 4.76299 5.5C6.15099 4.485 7.54499 4.16 8.99999 4L9.99999 6.5" stroke="#171923" stroke-width="2" stroke-linecap="round" stroke-linejoin="round"/>
</svg>
