<svg width="24" height="24" viewBox="0 0 24 24" fill="none" xmlns="http://www.w3.org/2000/svg">
<path d="M16.7 8C16.2928 6.84458 15.2239 6.05285 14 6H10C8.34315 6 7 7.34315 7 9C7 10.6569 8.34315 12 10 12H14C15.6569 12 17 13.3431 17 15C17 16.6569 15.6569 18 14 18H10C8.77606 17.9472 7.70722 17.1554 7.3 16" stroke="white" stroke-width="2" stroke-linecap="round" stroke-linejoin="round"/>
<path d="M13 3C13 2.44772 12.5523 2 12 2C11.4477 2 11 2.44772 11 3H13ZM11 6C11 6.55228 11.4477 7 12 7C12.5523 7 13 6.55228 13 6H11ZM13 18C13 17.4477 12.5523 17 12 17C11.4477 17 11 17.4477 11 18H13ZM11 21C11 21.5523 11.4477 22 12 22C12.5523 22 13 21.5523 13 21H11ZM11 3V6H13V3H11ZM11 18V21H13V18H11Z" fill="white"/>
</svg>
