<svg width="24" height="24" viewBox="0 0 24 24" fill="none" xmlns="http://www.w3.org/2000/svg">
<rect x="2" y="6" width="20" height="12" rx="2" stroke="white" stroke-width="2" stroke-linecap="round" stroke-linejoin="round"/>
<path d="M6 11C5.44772 11 5 11.4477 5 12C5 12.5523 5.44772 13 6 13V11ZM10 13C10.5523 13 11 12.5523 11 12C11 11.4477 10.5523 11 10 11V13ZM9 10C9 9.44772 8.55228 9 8 9C7.44772 9 7 9.44772 7 10H9ZM7 14C7 14.5523 7.44772 15 8 15C8.55228 15 9 14.5523 9 14H7ZM6 13H10V11H6V13ZM7 10V14H9V10H7Z" fill="white"/>
<path d="M15 11V11.01" stroke="white" stroke-width="2" stroke-linecap="round" stroke-linejoin="round"/>
<path d="M18 13V13.01" stroke="white" stroke-width="2" stroke-linecap="round" stroke-linejoin="round"/>
</svg>
