<svg width="140" height="40" viewBox="0 0 140 40" fill="none" xmlns="http://www.w3.org/2000/svg">
<path d="M41.6393 0H6.01575L4.6241 9.25965H40.2476L41.6393 0Z" fill="white"/>
<path d="M3.65796 15.6885L2.32933 24.5288L1.40265 30.6948L0.0110072 39.9544H10.4904H35.6345L37.0262 30.6948H11.8821L12.8088 24.5288H37.9529L39.2815 15.6885H14.1374H3.65796Z" fill="white"/>
<path d="M77.7836 24.8196L88.1855 39.9979H75.4699L69.1935 30.3512L67.2626 27.3838L67.0228 27.6284L61.0989 33.6492L56.3536 38.4739L54.8549 39.9979H42.1908L61.8328 20.0299L48.1561 0H60.7742L69.2979 12.4367L81.5327 0H94.1968L79.7435 14.6972L75.6024 18.9064L74.4973 20.0299L75.9628 22.164L75.9832 22.1909L77.7836 24.8196Z" fill="white"/>
<path d="M100.712 0.0134277L94.702 40.0006H133.988L139.998 0.0134277H100.712ZM124.914 30.7248H106.567L109.795 9.2462H128.142L124.914 30.7248Z" fill="white"/>
</svg>
