<svg width="140" height="40" viewBox="0 0 140 40" fill="none" xmlns="http://www.w3.org/2000/svg">
<path d="M41.6391 0H6.01562L4.62398 9.25965H40.2475L41.6391 0Z" fill="white"/>
<path d="M3.65771 15.6885L2.32909 24.5288L1.4024 30.6948L0.010763 39.9544H10.4902H35.6343L37.0259 30.6948H11.8818L12.8085 24.5288H37.9526L39.2812 15.6885H14.1371H3.65771Z" fill="white"/>
<path d="M77.7837 24.8196L88.1856 39.9979H75.4701L69.1936 30.3512L67.2627 27.3838L67.0229 27.6284L61.099 33.6492L56.3537 38.4739L54.855 39.9979H42.1909L61.8329 20.0299L48.1562 0H60.7743L69.298 12.4367L81.5328 0H94.1969L79.7436 14.6972L75.6025 18.9064L74.4974 20.0299L75.963 22.164L75.9833 22.1909L77.7837 24.8196Z" fill="white"/>
<path d="M100.711 0.0134277L94.7017 40.0006H133.988L139.998 0.0134277H100.711ZM124.914 30.7248H106.567L109.795 9.2462H128.142L124.914 30.7248Z" fill="white"/>
</svg>
