<svg width="190" height="54" viewBox="0 0 190 54" fill="none" xmlns="http://www.w3.org/2000/svg">
<path d="M56.505 -0.000488281H8.15881L6.27016 12.5H54.6164L56.505 -0.000488281Z" fill="white"/>
<path d="M4.95886 21.179L3.15573 33.1134L1.89808 41.4374L0.00942669 53.938H14.2315H48.3556L50.2443 41.4374H16.1202L17.3778 33.1134H51.5019L53.3051 21.179H19.1809H4.95886Z" fill="white"/>
<path d="M105.558 33.506L119.675 53.9967H102.418L93.9001 40.9737L91.2796 36.9677L90.9542 37.2979L82.9145 45.426L76.4745 51.9393L74.4406 53.9967H57.2536L83.9105 27.0398L65.3494 -0.000488281H82.4739L94.0417 16.789L110.646 -0.000488281H127.833L108.218 19.8407L102.598 25.5231L101.098 27.0398L103.087 29.9209L103.115 29.9572L105.558 33.506Z" fill="white"/>
<path d="M136.675 0.0175781L128.519 54.0003H181.836L189.992 0.0175781H136.675ZM169.52 41.478H144.622L149.003 12.4818H173.901L169.52 41.478Z" fill="white"/>
</svg>
