<svg width="21" height="18" viewBox="0 0 21 18" fill="none" xmlns="http://www.w3.org/2000/svg">
<path fill-rule="evenodd" clip-rule="evenodd" d="M6.18872 16.5447L8.82947 17.2453V16.3291L9.04503 16.1135H10.554V17.1914V17.9458H8.93725L6.94321 17.0836L6.18872 16.5447Z" fill="#CDBDB2"/>
<path fill-rule="evenodd" clip-rule="evenodd" d="M14.8115 16.5447L12.2247 17.2453V16.3291L12.0092 16.1135H10.5002V17.1914V17.9458H12.1169L14.1109 17.0836L14.8115 16.5447Z" fill="#CDBDB2"/>
<path fill-rule="evenodd" clip-rule="evenodd" d="M9.04491 14.5508L8.82935 16.3291L9.09876 16.1136H11.9011L12.2245 16.3291L12.0089 14.5508L11.5778 14.2812L9.42211 14.3352L9.04491 14.5508Z" fill="#393939"/>
<path fill-rule="evenodd" clip-rule="evenodd" d="M7.58984 2.53296L8.88325 5.5509L9.4761 14.3353H11.5778L12.2245 5.5509L13.4102 2.53296H7.58984Z" fill="#F89C35"/>
<path fill-rule="evenodd" clip-rule="evenodd" d="M1.93133 9.16143L0.422363 13.5266L4.19479 13.3111H6.61987V11.4249L6.51209 7.54468L5.97317 7.97581L1.93133 9.16143Z" fill="#F89D35"/>
<path fill-rule="evenodd" clip-rule="evenodd" d="M4.7876 9.64673L9.20672 9.75451L8.72175 12.018L6.61992 11.479L4.7876 9.64673Z" fill="#D87C30"/>
<path fill-rule="evenodd" clip-rule="evenodd" d="M4.7876 9.7002L6.61992 11.4247V13.1493L4.7876 9.7002Z" fill="#EA8D3A"/>
<path fill-rule="evenodd" clip-rule="evenodd" d="M6.61987 11.4795L8.77554 12.0184L9.47619 14.3358L8.99111 14.6052L6.61987 13.204V11.4795Z" fill="#F89D35"/>
<path fill-rule="evenodd" clip-rule="evenodd" d="M6.61986 13.2031L6.18872 16.5444L9.04503 14.5505L6.61986 13.2031Z" fill="#EB8F35"/>
<path fill-rule="evenodd" clip-rule="evenodd" d="M9.20664 9.75488L9.47615 14.3357L8.66772 11.9914L9.20664 9.75488Z" fill="#EA8E3A"/>
<path fill-rule="evenodd" clip-rule="evenodd" d="M4.14087 13.2571L6.61989 13.2031L6.18876 16.5444L4.14087 13.2571Z" fill="#D87C30"/>
<path fill-rule="evenodd" clip-rule="evenodd" d="M1.60798 18L6.18874 16.5449L4.14085 13.2576L0.422363 13.527L1.60798 18Z" fill="#EB8F35"/>
<path fill-rule="evenodd" clip-rule="evenodd" d="M8.88337 5.55078L6.56608 7.49089L4.7876 9.64656L9.20672 9.80828L8.88337 5.55078Z" fill="#E8821E"/>
<path fill-rule="evenodd" clip-rule="evenodd" d="M6.18872 16.545L9.04503 14.551L8.82947 16.2756V17.2456L6.88936 16.8683L6.18872 16.545Z" fill="#DFCEC3"/>
<path fill-rule="evenodd" clip-rule="evenodd" d="M14.8115 16.545L12.0092 14.551L12.2247 16.2756V17.2456L14.1648 16.8683L14.8115 16.545Z" fill="#DFCEC3"/>
<path fill-rule="evenodd" clip-rule="evenodd" d="M8.02091 10.7244L8.61377 11.9639L6.51194 11.425L8.02091 10.7244Z" fill="#393939"/>
<path fill-rule="evenodd" clip-rule="evenodd" d="M1.5542 0L8.88348 5.55081L7.64402 2.53287L1.5542 0Z" fill="#E88F35"/>
<path fill-rule="evenodd" clip-rule="evenodd" d="M1.55404 0L0.583984 2.96405L1.1229 6.19756L0.74566 6.41312L1.28458 6.89815L0.853443 7.27539L1.44625 7.81431L1.06901 8.13766L1.93128 9.2155L5.97316 7.97599C7.9492 6.39516 8.91925 5.58678 8.88332 5.55085C8.84739 5.51493 6.4043 3.66464 1.55404 0Z" fill="#8E5A30"/>
<path fill-rule="evenodd" clip-rule="evenodd" d="M19.0689 9.16143L20.5779 13.5266L16.8055 13.3111H14.3804V11.4249L14.4882 7.54468L15.0271 7.97581L19.0689 9.16143Z" fill="#F89D35"/>
<path fill-rule="evenodd" clip-rule="evenodd" d="M16.2126 9.64673L11.7935 9.75451L12.2785 12.018L14.3803 11.479L16.2126 9.64673Z" fill="#D87C30"/>
<path fill-rule="evenodd" clip-rule="evenodd" d="M16.2126 9.7002L14.3803 11.4247V13.1493L16.2126 9.7002Z" fill="#EA8D3A"/>
<path fill-rule="evenodd" clip-rule="evenodd" d="M14.3804 11.4795L12.2247 12.0184L11.5241 14.3358L12.0091 14.6052L14.3804 13.204V11.4795Z" fill="#F89D35"/>
<path fill-rule="evenodd" clip-rule="evenodd" d="M14.3801 13.2031L14.8113 16.5444L12.0089 14.6043L14.3801 13.2031Z" fill="#EB8F35"/>
<path fill-rule="evenodd" clip-rule="evenodd" d="M11.7936 9.75488L11.5241 14.3357L12.3325 11.9914L11.7936 9.75488Z" fill="#EA8E3A"/>
<path fill-rule="evenodd" clip-rule="evenodd" d="M16.8594 13.2571L14.3804 13.2031L14.8115 16.5444L16.8594 13.2571Z" fill="#D87C30"/>
<path fill-rule="evenodd" clip-rule="evenodd" d="M19.3923 18L14.8115 16.5449L16.8594 13.2576L20.5779 13.527L19.3923 18Z" fill="#EB8F35"/>
<path fill-rule="evenodd" clip-rule="evenodd" d="M12.1169 5.55078L14.4342 7.49089L16.2126 9.64656L11.7935 9.80828L12.1169 5.55078Z" fill="#E8821E"/>
<path fill-rule="evenodd" clip-rule="evenodd" d="M12.9793 10.7244L12.3865 11.9639L14.4883 11.425L12.9793 10.7244Z" fill="#393939"/>
<path fill-rule="evenodd" clip-rule="evenodd" d="M19.446 0L12.1168 5.55081L13.3562 2.53287L19.446 0Z" fill="#E88F35"/>
<path fill-rule="evenodd" clip-rule="evenodd" d="M19.4462 0L20.4163 2.96405L19.8773 6.19756L20.2546 6.41312L19.7157 6.89815L20.1468 7.27539L19.554 7.81431L19.9312 8.13766L19.069 9.2155L15.0271 7.97599C13.051 6.39516 12.081 5.58678 12.1169 5.55085C12.1529 5.51493 14.5959 3.66464 19.4462 0Z" fill="#8E5A30"/>
</svg>
