<svg width="24" height="24" viewBox="0 0 24 24" fill="none" xmlns="http://www.w3.org/2000/svg">
<path d="M6 3.00024C5.44772 3.00024 5 3.44796 5 4.00024C5 4.55253 5.44772 5.00024 6 5.00024V3.00024ZM6 5.00024C6.55228 5.00024 7 4.55253 7 4.00024C7 3.44796 6.55228 3.00024 6 3.00024V5.00024ZM10 4.00024C10 3.44796 9.55228 3.00024 9 3.00024C8.44772 3.00024 8 3.44796 8 4.00024H10ZM8 22.0002C8 22.5525 8.44772 23.0002 9 23.0002C9.55228 23.0002 10 22.5525 10 22.0002H8ZM6 5.00024H17V3.00024H6V5.00024ZM17 5.00024C17.5523 5.00024 18 5.44796 18 6.00024H20C20 4.34339 18.6569 3.00024 17 3.00024V5.00024ZM18 6.00024V18.0002H20V6.00024H18ZM18 18.0002C18 18.5525 17.5523 19.0002 17 19.0002V21.0002C18.6569 21.0002 20 19.6571 20 18.0002H18ZM17 19.0002H6V21.0002H17V19.0002ZM6 19.0002H4C4 20.1048 4.89543 21.0002 6 21.0002V19.0002ZM6 19.0002V5.00024H4V19.0002H6ZM6 5.00024V3.00024C4.89543 3.00024 4 3.89567 4 5.00024H6ZM8 4.00024V22.0002H10V4.00024H8Z" fill="black"/>
<path d="M13 8.00024H15" stroke="#16132B" stroke-width="2" stroke-linecap="round" stroke-linejoin="round"/>
<path d="M13 12.0002H15" stroke="black" stroke-width="2" stroke-linecap="round" stroke-linejoin="round"/>
</svg>
