<svg width="25" height="24" viewBox="0 0 25 24" fill="none" xmlns="http://www.w3.org/2000/svg">
<path d="M6.83325 3C6.28097 3 5.83325 3.44772 5.83325 4C5.83325 4.55228 6.28097 5 6.83325 5V3ZM6.83325 5C7.38554 5 7.83325 4.55228 7.83325 4C7.83325 3.44772 7.38554 3 6.83325 3V5ZM10.8333 4C10.8333 3.44772 10.3855 3 9.83325 3C9.28097 3 8.83325 3.44772 8.83325 4H10.8333ZM8.83325 22C8.83325 22.5523 9.28097 23 9.83325 23C10.3855 23 10.8333 22.5523 10.8333 22H8.83325ZM6.83325 5H17.8333V3H6.83325V5ZM17.8333 5C18.3855 5 18.8333 5.44772 18.8333 6H20.8333C20.8333 4.34315 19.4901 3 17.8333 3V5ZM18.8333 6V18H20.8333V6H18.8333ZM18.8333 18C18.8333 18.5523 18.3855 19 17.8333 19V21C19.4901 21 20.8333 19.6569 20.8333 18H18.8333ZM17.8333 19H6.83325V21H17.8333V19ZM6.83325 19H4.83325C4.83325 20.1046 5.72868 21 6.83325 21V19ZM6.83325 19V5H4.83325V19H6.83325ZM6.83325 5V3C5.72868 3 4.83325 3.89543 4.83325 5H6.83325ZM8.83325 4V22H10.8333V4H8.83325Z" fill="black"/>
<path d="M13.8333 8H15.8333" stroke="#16132B" stroke-width="2" stroke-linecap="round" stroke-linejoin="round"/>
<path d="M13.8333 12H15.8333" stroke="black" stroke-width="2" stroke-linecap="round" stroke-linejoin="round"/>
</svg>
