<svg width="25" height="24" viewBox="0 0 25 24" fill="none" xmlns="http://www.w3.org/2000/svg">
<path d="M6.5 3C5.94772 3 5.5 3.44772 5.5 4C5.5 4.55228 5.94772 5 6.5 5V3ZM6.5 5C7.05228 5 7.5 4.55228 7.5 4C7.5 3.44772 7.05228 3 6.5 3V5ZM10.5 4C10.5 3.44772 10.0523 3 9.5 3C8.94772 3 8.5 3.44772 8.5 4H10.5ZM8.5 22C8.5 22.5523 8.94772 23 9.5 23C10.0523 23 10.5 22.5523 10.5 22H8.5ZM6.5 5H17.5V3H6.5V5ZM17.5 5C18.0523 5 18.5 5.44772 18.5 6H20.5C20.5 4.34315 19.1569 3 17.5 3V5ZM18.5 6V18H20.5V6H18.5ZM18.5 18C18.5 18.5523 18.0523 19 17.5 19V21C19.1569 21 20.5 19.6569 20.5 18H18.5ZM17.5 19H6.5V21H17.5V19ZM6.5 19H4.5C4.5 20.1046 5.39543 21 6.5 21V19ZM6.5 19V5H4.5V19H6.5ZM6.5 5V3C5.39543 3 4.5 3.89543 4.5 5H6.5ZM8.5 4V22H10.5V4H8.5Z" fill="#171923"/>
<path d="M13.5 8H15.5" stroke="#16132B" stroke-width="2" stroke-linecap="round" stroke-linejoin="round"/>
<path d="M13.5 12H15.5" stroke="#171923" stroke-width="2" stroke-linecap="round" stroke-linejoin="round"/>
</svg>
