<svg width="24" height="24" viewBox="0 0 24 24" fill="none" xmlns="http://www.w3.org/2000/svg">
<path d="M6 3C5.44772 3 5 3.44772 5 4C5 4.55228 5.44772 5 6 5V3ZM6 5C6.55228 5 7 4.55228 7 4C7 3.44772 6.55228 3 6 3V5ZM10 4C10 3.44772 9.55228 3 9 3C8.44772 3 8 3.44772 8 4H10ZM8 22C8 22.5523 8.44772 23 9 23C9.55228 23 10 22.5523 10 22H8ZM6 5H17V3H6V5ZM17 5C17.5523 5 18 5.44772 18 6H20C20 4.34315 18.6569 3 17 3V5ZM18 6V18H20V6H18ZM18 18C18 18.5523 17.5523 19 17 19V21C18.6569 21 20 19.6569 20 18H18ZM17 19H6V21H17V19ZM6 19H4C4 20.1046 4.89543 21 6 21V19ZM6 19V5H4V19H6ZM6 5V3C4.89543 3 4 3.89543 4 5H6ZM8 4V22H10V4H8Z" fill="black"/>
<path d="M13 8H15" stroke="#16132B" stroke-width="2" stroke-linecap="round" stroke-linejoin="round"/>
<path d="M13 12H15" stroke="black" stroke-width="2" stroke-linecap="round" stroke-linejoin="round"/>
</svg>
