<svg width="25" height="24" viewBox="0 0 25 24" fill="none" xmlns="http://www.w3.org/2000/svg">
<path d="M22.6665 12C22.6665 6.47715 18.1894 2 12.6665 2C7.14366 2 2.6665 6.47715 2.6665 12" stroke="white" stroke-width="2" stroke-linecap="round" stroke-linejoin="round"/>
<path d="M22.6665 12C22.6665 10.34 21.2065 9 19.4165 9C17.6165 9 16.1665 10.34 16.1665 12C16.1665 10.34 14.5965 9 12.6665 9C10.7365 9 9.1665 10.34 9.1665 12C9.1665 10.34 7.7065 9 5.9165 9C4.1165 9 2.6665 10.34 2.6665 12" stroke="white" stroke-width="2" stroke-linecap="round" stroke-linejoin="round"/>
<path d="M2.6665 12L12.6665 22L9.1665 12" stroke="white" stroke-width="2" stroke-linecap="round" stroke-linejoin="round"/>
<path d="M16.1665 12L12.6665 22L22.6665 12" stroke="white" stroke-width="2" stroke-linecap="round" stroke-linejoin="round"/>
</svg>
