<svg width="24" height="24" viewBox="0 0 24 24" fill="none" xmlns="http://www.w3.org/2000/svg">
<path d="M2 20.0003C2.46118 20.6428 3.20929 21.0168 4 21.0003C4.79071 21.0168 5.53882 20.6428 6 20.0003C6.46118 19.3578 7.20929 18.9837 8 19.0003C8.79071 18.9837 9.53882 19.3578 10 20.0003C10.4612 20.6428 11.2093 21.0168 12 21.0003C12.7907 21.0168 13.5388 20.6428 14 20.0003C14.4612 19.3578 15.2093 18.9837 16 19.0003C16.7907 18.9837 17.5388 19.3578 18 20.0003C18.4612 20.6428 19.2093 21.0168 20 21.0003C20.7907 21.0168 21.5388 20.6428 22 20.0003" stroke="#16132B" stroke-width="2" stroke-linecap="round" stroke-linejoin="round"/>
<path d="M4 18.0002L3 15.0002H21L20 18.0002" stroke="black" stroke-width="2" stroke-linecap="round" stroke-linejoin="round"/>
<path d="M11 12.0002H18L11 3.00024V12.0002" stroke="black" stroke-width="2" stroke-linecap="round" stroke-linejoin="round"/>
<path d="M8 7.00024L6 12.0002" stroke="black" stroke-width="2" stroke-linecap="round" stroke-linejoin="round"/>
</svg>
