<svg width="414" height="655" viewBox="0 0 414 655" fill="none" xmlns="http://www.w3.org/2000/svg">
<g clip-path="url(#clip0_262_24724)">
<g filter="url(#filter0_f_262_24724)">
<ellipse cx="434.531" cy="328" rx="113.563" ry="158" fill="url(#paint0_linear_262_24724)"/>
</g>
<g style="mix-blend-mode:overlay" opacity="0.5">
<g style="mix-blend-mode:overlay" opacity="0.6">
<path fill-rule="evenodd" clip-rule="evenodd" d="M566.56 14.9999V272.77H565.631V14.9999H566.56ZM566.56 373.975V631.745H565.631V373.975H566.56ZM486.755 621.445L566.685 323.145L646.614 621.445L647.511 621.204L568.48 326.254L721.097 590.593L721.902 590.129L569.225 325.685L785.056 541.516L785.713 540.859L569.793 324.94L834.134 477.556L834.598 476.752L570.149 324.072L864.985 403.074L865.226 402.176L570.274 323.144H875.508V322.215H570.154L864.985 243.215L864.745 242.318L569.793 321.35L834.134 168.733L833.669 167.928L569.223 320.606L785.056 104.773L784.399 104.116L568.48 320.035L721.096 55.6959L720.292 55.2314L567.614 319.677L646.614 24.8445L645.717 24.604L566.685 319.555L487.653 24.6034L486.755 24.8439L565.755 319.675L413.078 55.2309L412.274 55.6954L564.892 320.038L348.97 104.116L348.313 104.773L564.146 320.606L299.7 167.928L299.236 168.733L563.575 321.349L268.625 242.317L268.384 243.215L563.217 322.215H257.861V323.144H563.097L268.144 402.177L268.384 403.074L563.217 324.074L298.771 476.752L299.236 477.556L563.575 324.94L347.657 540.859L348.313 541.515L564.147 325.682L411.468 590.129L412.273 590.594L564.89 326.253L485.858 621.205L486.755 621.445Z" fill="white"/>
</g>
</g>
<g style="mix-blend-mode:overlay">
<circle opacity="0.5" cx="566.685" cy="324.499" r="173.587" stroke="white" stroke-width="0.92905"/>
<circle opacity="0.5" cx="566.657" cy="324.499" r="308.416" transform="rotate(-45 566.657 324.499)" stroke="white" stroke-width="0.92905"/>
</g>
<circle cx="299.173" cy="169.41" r="5.41795" fill="#FCD55F"/>
<circle cx="268.697" cy="243.907" r="5.41795" fill="#FCD55F"/>
<circle cx="257.861" cy="323.822" r="5.41795" fill="#FCD55F"/>
<circle cx="268.697" cy="403.737" r="5.41795" fill="#FCD55F"/>
<circle cx="299.173" cy="478.233" r="5.41795" fill="#FCD55F"/>
<g clip-path="url(#clip1_262_24724)">
<path d="M173.443 471.265C172.235 476.518 171.027 481.776 169.819 487.037C171.25 486.959 172.681 486.886 174.113 486.816C174.472 485.204 174.831 483.594 175.188 481.986C177.682 481.729 180.18 481.487 182.681 481.259C183.3 477.718 183.921 474.178 184.545 470.638C180.843 470.816 177.142 471.025 173.443 471.265V471.265ZM179.322 477.166C178.28 477.273 177.239 477.383 176.199 477.495C176.379 476.713 176.558 475.931 176.736 475.149C177.729 475.119 178.722 475.092 179.717 475.066C179.587 475.767 179.455 476.467 179.322 477.166V477.166ZM185.54 470.481C184.608 475.689 183.676 480.901 182.743 486.116C186.737 485.884 190.732 485.687 194.73 485.526C195.368 480.368 196.01 475.211 196.656 470.053C192.95 470.165 189.244 470.308 185.54 470.481V470.481ZM191.025 480.972C189.935 481.065 188.846 481.161 187.758 481.259L188.874 474.439C189.872 474.42 190.87 474.403 191.868 474.388L191.025 480.972ZM205.167 476.323C203.968 474.152 202.769 471.984 201.57 469.817C200.227 469.864 198.883 469.914 197.539 469.968C196.917 475.121 196.296 480.274 195.677 485.428C197.192 485.386 198.706 485.349 200.22 485.317C200.392 483.258 200.565 481.198 200.738 479.14C201.945 481.192 203.153 483.246 204.36 485.301C205.807 485.203 207.253 485.109 208.699 485.019C209.043 479.889 209.388 474.758 209.733 469.628C208.412 469.616 207.091 469.609 205.77 469.607L205.167 476.323ZM210.755 469.716L209.745 485.035C211.266 485.013 212.785 484.994 214.303 484.98C216.789 484.11 219.275 483.255 221.76 482.415C221.76 478.089 221.756 473.76 221.749 469.429C218.086 469.495 214.421 469.591 210.755 469.716ZM214.54 473.825C215.547 473.774 216.553 473.725 217.557 473.678C217.541 475.459 217.526 477.241 217.511 479.021C216.414 479.467 215.318 479.92 214.223 480.381C214.328 478.195 214.434 476.01 214.54 473.825V473.825ZM228.283 473.376C229.791 473.308 231.3 473.243 232.809 473.182C232.772 471.973 232.736 470.764 232.701 469.553C229.364 469.524 226.023 469.519 222.678 469.54C222.7 470.97 222.719 472.4 222.737 473.832C224.555 475.903 226.37 477.982 228.182 480.07C226.365 480.138 224.547 480.214 222.731 480.297C222.754 481.878 222.779 483.459 222.804 485.04C226.726 484.933 230.649 484.863 234.571 484.83L234.402 480.341C232.363 478.007 230.323 475.686 228.283 473.376V473.376ZM234.845 469.525L235.682 485.035C237.127 485.098 238.571 485.164 240.016 485.234C239.933 483.871 239.851 482.509 239.77 481.147C240.862 481.197 241.955 481.251 243.048 481.307L243.412 485.098C244.834 485.174 246.257 485.256 247.68 485.343L245.992 469.91C242.277 469.751 238.561 469.623 234.845 469.525ZM239.335 473.735C240.343 473.798 241.35 473.863 242.356 473.929L242.615 476.655C241.579 476.664 240.545 476.677 239.512 476.692L239.335 473.735ZM257.044 470.418C256.263 471.98 255.482 473.543 254.702 475.108C253.448 473.412 252.195 471.719 250.942 470.03C249.6 469.979 248.257 469.931 246.913 469.888L248.616 485.336C250.136 485.413 251.654 485.495 253.171 485.58L252.262 479.382C253.493 480.955 254.725 482.532 255.956 484.112L256.033 484.214C256.816 482.75 257.618 481.255 258.399 479.792C258.688 481.862 258.977 483.932 259.265 486.005C260.778 486.066 262.292 486.132 263.804 486.202C262.895 481.014 261.986 475.827 261.078 470.641C259.732 470.563 258.387 470.489 257.044 470.418V470.418ZM273.179 471.364C269.466 471.056 265.751 470.78 262.034 470.534C262.972 475.753 263.91 480.973 264.848 486.196C266.295 486.319 267.742 486.447 269.188 486.581L268.423 482.451C269.517 482.546 270.611 482.643 271.704 482.744L272.549 486.592C273.975 486.732 275.4 486.875 276.824 487.021C275.609 481.796 274.394 476.577 273.179 471.364V471.364ZM270.676 478.038C269.649 478.006 268.622 477.976 267.594 477.949C267.409 476.951 267.225 475.955 267.041 474.959C268.052 475.066 269.061 475.172 270.07 475.279C270.272 476.197 270.474 477.117 270.676 478.038V478.038Z" fill="white"/>
</g>
<path d="M120.433 400.716C118.603 398.864 116.773 396.963 114.941 395.014L112.254 394.932V408.285L115.856 408.175V401.125C117.385 402.697 118.91 404.236 120.433 405.744C121.952 404.178 123.471 402.644 124.99 401.142V407.91L128.615 407.82V395.38L125.921 395.316C124.094 397.079 122.264 398.879 120.433 400.716ZM130.128 407.8C135.136 407.685 140.146 407.591 145.156 407.518V395.75C140.146 395.671 135.136 395.577 130.128 395.468V407.8ZM133.733 398.618L141.551 398.691V404.557L133.733 404.633V398.618ZM146.67 407.484C151.682 407.409 156.692 407.352 161.701 407.312V395.936C156.69 395.896 151.68 395.839 146.67 395.764V407.484ZM150.275 398.756L158.096 398.801V404.441C155.487 404.453 152.88 404.468 150.275 404.486V398.756ZM174.18 402.419C171.447 400.265 168.713 398.097 165.978 395.916L163.234 395.899V407.312L166.836 407.29V400.806C169.573 402.965 172.31 405.111 175.047 407.244H177.794V395.964H174.188L174.18 402.419ZM182.887 398.852C186.331 398.852 189.777 398.844 193.223 398.829V395.953C188.576 395.985 183.929 396.002 179.282 396.004V402.177L189.697 403.488V404.314H179.166V407.242C183.871 407.242 188.582 407.259 193.299 407.292V401.046L182.887 399.766V398.852ZM201.408 395.832C199.042 398.951 196.676 402.032 194.31 405.076V407.312C199.768 407.352 205.227 407.413 210.685 407.495V405.186C208.319 402.009 205.954 398.883 203.59 395.809L201.408 395.832ZM199.307 404.21C200.363 402.834 201.419 401.45 202.475 400.059C203.542 401.443 204.61 402.837 205.679 404.241L199.307 404.21ZM219.72 400.772C217.886 399.045 216.055 397.345 214.225 395.674L211.538 395.716V407.498C212.74 407.515 213.942 407.535 215.143 407.557V401.176C216.668 402.591 218.193 404.029 219.72 405.488C221.239 404.072 222.757 402.63 224.276 401.162V407.732L227.901 407.814V395.406L225.211 395.468C223.389 397.269 221.558 399.037 219.72 400.772ZM238.029 395.124L235.858 395.186C233.492 398.692 231.127 402.098 228.763 405.403V407.837C234.221 407.966 239.675 408.117 245.124 408.288V405.676C242.758 402.04 240.393 398.523 238.029 395.124V395.124ZM233.771 404.492C234.825 402.977 235.88 401.441 236.936 399.884C238.003 401.426 239.07 402.988 240.138 404.571L233.771 404.492Z" fill="white"/>
<path fill-rule="evenodd" clip-rule="evenodd" d="M213.912 422.983V411.703H143.894V422.983H213.912ZM156.105 418.764H156.105C156.031 418.764 155.938 418.761 155.825 418.757C155.796 418.756 155.765 418.754 155.732 418.753C155.568 418.744 155.404 418.72 155.244 418.68C155.071 418.637 154.906 418.566 154.755 418.471C154.598 418.371 154.468 418.233 154.377 418.071C154.27 417.867 154.22 417.638 154.23 417.408V417.281C154.22 417.051 154.27 416.822 154.377 416.618C154.464 416.445 154.595 416.298 154.755 416.19C154.906 416.096 155.071 416.028 155.244 415.987C155.404 415.946 155.567 415.921 155.732 415.911H156.517C156.701 415.923 156.883 415.956 157.059 416.009C157.248 416.068 157.422 416.164 157.573 416.291C157.736 416.429 157.855 416.611 157.915 416.816H159.374C159.343 416.518 159.241 416.231 159.078 415.98C158.915 415.728 158.694 415.519 158.434 415.369C157.892 415.04 157.116 414.876 156.105 414.876C154.994 414.876 154.168 415.073 153.626 415.468C153.356 415.665 153.14 415.927 152.997 416.23C152.854 416.532 152.789 416.865 152.807 417.199V417.459C152.788 417.793 152.853 418.126 152.996 418.429C153.139 418.731 153.356 418.993 153.626 419.19C154.168 419.585 154.994 419.782 156.105 419.782C157.116 419.784 157.892 419.62 158.434 419.289C158.694 419.139 158.915 418.93 159.078 418.678C159.241 418.427 159.343 418.14 159.374 417.842H157.915C157.855 418.047 157.736 418.229 157.573 418.367C157.422 418.494 157.248 418.59 157.059 418.649C156.883 418.702 156.701 418.735 156.517 418.748C156.342 418.764 156.207 418.764 156.105 418.764ZM167.034 419.687L164.524 415.008H162.44L159.928 419.687H161.517L162.008 418.711H164.959L165.447 419.687H167.034ZM163.471 415.772L164.476 417.76L162.469 417.763L163.471 415.772ZM174.033 417.665C174.235 417.383 174.342 417.044 174.338 416.697C174.341 416.398 174.261 416.105 174.106 415.848C173.959 415.596 173.749 415.385 173.496 415.237C173.24 415.085 172.947 415.006 172.649 415.008H168.031V419.687H169.462V418.384H171.89L172.83 419.687H174.338L173.242 418.277C173.561 418.155 173.836 417.942 174.033 417.665ZM169.462 417.354V416.054H172.26C172.388 416.056 172.512 416.095 172.618 416.166C172.724 416.238 172.807 416.339 172.855 416.457C172.904 416.576 172.917 416.705 172.892 416.831C172.868 416.956 172.807 417.072 172.717 417.163C172.658 417.225 172.587 417.274 172.509 417.307C172.43 417.34 172.345 417.356 172.26 417.354H169.462ZM180.515 419.687H182.387V415.008H180.975V418.279L178.152 415.008H175.758V419.687H177.187V415.958L180.515 419.687ZM190.496 419.687L187.983 415.008H185.899L183.386 419.687H184.976L185.467 418.711H188.415L188.906 419.687H190.496ZM186.941 415.772L187.938 417.76L185.942 417.763L186.941 415.772ZM197.537 417.149H194.279V417.913H196.105C196.035 418.105 195.911 418.273 195.75 418.398C195.598 418.511 195.427 418.595 195.244 418.646C195.073 418.694 194.897 418.724 194.719 418.736C194.553 418.753 194.409 418.753 194.321 418.753H193.951C193.786 418.744 193.621 418.72 193.46 418.68C193.288 418.637 193.124 418.568 192.974 418.474C192.816 418.375 192.686 418.237 192.596 418.074C192.489 417.87 192.438 417.643 192.446 417.414V417.281C192.437 417.051 192.489 416.822 192.596 416.618C192.687 416.457 192.817 416.321 192.974 416.224C193.124 416.13 193.288 416.062 193.46 416.02C193.621 415.98 193.785 415.954 193.951 415.944H194.68C194.84 415.954 194.998 415.977 195.154 416.015C195.323 416.053 195.485 416.118 195.634 416.207C195.789 416.297 195.92 416.424 196.015 416.576H197.537C197.47 416.307 197.346 416.055 197.172 415.839C196.997 415.622 196.778 415.447 196.529 415.324C195.838 415.008 195.081 414.862 194.321 414.898C193.211 414.898 192.384 415.096 191.842 415.49C191.575 415.687 191.361 415.946 191.218 416.245C191.076 416.544 191.01 416.874 191.026 417.205V417.464C191.005 417.799 191.069 418.134 191.212 418.439C191.354 418.743 191.571 419.006 191.842 419.204C192.386 419.599 193.212 419.797 194.321 419.797C195.377 419.797 196.162 419.531 196.676 419.001L196.76 419.667H197.537V417.149ZM200.637 415.944H204.996V415.008H199.208V419.689H204.996V418.748H200.637V417.794H204.996V416.9H200.637V415.944Z" fill="white"/>
<g clip-path="url(#clip2_262_24724)">
<path d="M104.263 322.511L98.7173 316.393H95.9999V330.594H99.6412V322.976L104.263 328.063L108.866 322.976V330.594H112.527V316.393H109.81L104.263 322.511V322.511ZM113.679 330.594H128.857V316.432H113.679V330.594ZM117.309 320.019H125.205V327.007H117.309V320.019ZM129.986 330.594H145.165V316.432H129.986V330.594ZM133.639 320.019H141.535V327.007H133.639V320.019ZM157.361 324.518L149.08 316.372H146.305V330.594H149.947V322.49L158.227 330.594H161.002V316.372H157.361V324.518ZM165.898 320.019H176.34V316.432H162.259V324.212L172.776 325.852V326.887H162.142V330.594H176.417V322.793L165.898 321.174V320.019V320.019ZM184.723 316.372L177.552 327.82V330.594H194.09V327.82L186.919 316.372H184.723ZM182.602 326.725L185.801 321.599L189.037 326.725H182.602ZM203.486 322.511L197.94 316.393H195.225V330.594H198.864V322.976L203.486 328.063L208.091 322.976V330.594H211.749V316.393H209.035L203.486 322.511ZM222.251 316.372H220.056L212.89 327.82V330.594H229.428V327.82L222.251 316.372ZM217.937 326.725L221.136 321.599L224.37 326.725H217.937Z" fill="white"/>
</g>
<path d="M205.153 233.071H190.717L190.152 236.834H204.588L205.153 233.071Z" fill="white"/>
<path d="M189.76 239.446L189.222 243.038L188.846 245.544L188.282 249.306H192.528H202.718L203.282 245.544H193.093L193.468 243.038H203.658L204.197 239.446H194.007H189.76Z" fill="white"/>
<path d="M219.799 243.156L224.014 249.324H218.861L216.318 245.404L215.536 244.198L215.438 244.298L213.037 246.744L211.114 248.705L210.507 249.324H205.375L213.335 241.21L207.794 233.071H212.907L216.361 238.125L221.32 233.071H226.452L220.594 239.043L218.916 240.753L218.468 241.21L219.061 242.077L219.07 242.088L219.799 243.156Z" fill="white"/>
<path d="M229.092 233.077L226.655 249.325H242.575L245.012 233.077H229.092ZM238.898 245.556H231.463L232.772 236.828H240.207L238.898 245.556Z" fill="white"/>
<g clip-path="url(#clip3_262_24724)">
<path fill-rule="evenodd" clip-rule="evenodd" d="M116.281 147.061C112.561 147.061 109.544 150.041 109.544 153.718V162.75C109.544 166.427 112.561 169.408 116.281 169.408H125.422C129.142 169.408 132.158 166.427 132.158 162.75V153.718C132.158 150.041 129.142 147.061 125.422 147.061H116.281ZM119.921 150.688L119.952 150.682L120.474 150.508C121.393 150.557 122.992 150.844 123.782 151.215L123.693 151.072C123.992 151.202 124.278 151.358 124.55 151.537L124.509 151.356C125.165 151.723 125.738 152.222 126.189 152.822L126.266 152.551C127.301 153.677 127.445 154.721 127.485 155.015C127.492 155.064 127.496 155.092 127.501 155.096L127.678 154.834C128.206 155.706 128.059 157.118 127.923 157.35L128.379 156.797C128.63 158.147 128.479 159.55 127.949 160.509L128.374 160.067C128.276 160.93 128.028 161.314 128.013 161.337L128.611 160.957C128.397 162.626 126.689 163.832 126.689 163.832L127.203 163.79C126.791 164.217 125.928 164.582 125.928 164.582H126.345C124.339 165.902 120.823 165.902 120.823 165.902C120.823 165.902 117.305 165.895 115.299 164.582H115.716C115.716 164.582 114.85 164.217 114.441 163.79L114.955 163.832C114.955 163.832 113.247 162.626 113.033 160.957L113.63 161.337C113.613 161.314 113.365 160.931 113.267 160.067L113.692 160.509C113.169 159.55 113.006 158.147 113.262 156.797L113.714 157.35C113.578 157.118 113.442 155.706 113.963 154.834L114.14 155.096C114.145 155.092 114.149 155.064 114.156 155.015C114.196 154.721 114.34 153.677 115.375 152.555L115.452 152.826C115.904 152.226 116.478 151.727 117.135 151.361L117.094 151.541C117.366 151.362 117.652 151.206 117.951 151.076L117.858 151.225C118.377 150.976 119.328 150.798 119.921 150.688ZM116.905 161.128C117.338 161.65 118.13 161.474 118.196 161.009C118.283 160.393 117.844 159.973 117.277 159.778C116.835 159.645 116.369 159.617 115.915 159.696C115.915 159.696 116.811 159.756 116.936 160.157C116.936 160.157 116.541 160.687 116.905 161.128ZM120.975 164.957C121.491 164.726 121.96 164.404 122.361 164.008C122.709 163.678 122.88 163.431 122.88 163.128C122.875 162.992 122.84 162.859 122.778 162.737C122.628 162.398 122.408 162.093 122.132 161.844C121.855 161.595 121.53 161.406 121.175 161.291C120.946 161.217 120.698 161.217 120.469 161.291C120.114 161.406 119.789 161.595 119.512 161.844C119.236 162.093 119.016 162.398 118.866 162.737C118.804 162.858 118.769 162.989 118.764 163.124C118.764 163.431 118.937 163.678 119.282 164.008C119.684 164.404 120.153 164.726 120.669 164.957C120.767 164.997 120.877 164.997 120.975 164.957ZM123.454 161.009C123.519 161.474 124.312 161.65 124.745 161.128C125.063 160.734 124.786 160.272 124.727 160.175C124.72 160.163 124.716 160.157 124.717 160.157C124.843 159.756 125.739 159.696 125.739 159.696C125.285 159.617 124.818 159.645 124.377 159.778C123.805 159.973 123.367 160.393 123.454 161.009Z" fill="white"/>
<path d="M140.639 165.787H145.43V160.89H151.092C152.881 160.89 154.3 160.412 155.349 159.457C156.404 158.501 156.932 157.214 156.932 155.595C156.932 154.033 156.425 152.802 155.412 151.902C154.398 151.002 152.979 150.552 151.155 150.552H140.639V165.787ZM145.43 157.772V153.984H149.865C150.606 153.984 151.158 154.155 151.522 154.497C151.892 154.839 152.077 155.309 152.077 155.909C152.077 156.495 151.903 156.952 151.553 157.28C151.204 157.608 150.641 157.772 149.865 157.772H145.43ZM152.706 165.787H157.98L153.367 158.745L148.932 159.415L152.706 165.787Z" fill="white"/>
<path d="M158.101 162.711C158.101 163.722 158.503 164.511 159.307 165.076C160.118 165.641 161.267 165.923 162.756 165.923C164.189 165.923 165.36 165.756 166.269 165.421C167.177 165.079 167.817 164.689 168.187 164.249C168.215 164.612 168.261 164.912 168.324 165.149C168.386 165.386 168.488 165.599 168.628 165.787H173.262V165.651C173.094 165.407 172.968 165.118 172.884 164.783C172.808 164.448 172.769 164.092 172.769 163.715V158.986C172.769 157.647 172.245 156.667 171.196 156.046C170.148 155.425 168.456 155.115 166.122 155.115C163.927 155.115 162.225 155.46 161.016 156.15C159.807 156.841 159.202 157.723 159.202 158.798V159.059L163.343 159.08V158.829C163.343 158.466 163.532 158.187 163.91 157.992C164.287 157.797 164.888 157.699 165.713 157.699C166.622 157.699 167.251 157.779 167.6 157.94C167.95 158.093 168.124 158.316 168.124 158.609V159.572L163.354 159.541C161.634 159.527 160.327 159.795 159.433 160.346C158.545 160.897 158.101 161.685 158.101 162.711ZM162.662 162.355C162.662 161.992 162.851 161.748 163.228 161.623C163.606 161.497 164.203 161.438 165.021 161.445L168.124 161.466V161.895C168.124 162.404 167.785 162.805 167.107 163.098C166.429 163.384 165.681 163.527 164.864 163.527C164.116 163.527 163.56 163.429 163.197 163.234C162.84 163.032 162.662 162.739 162.662 162.355Z" fill="white"/>
<path d="M174.651 165.787H179.422V161.037C179.855 160.353 180.477 159.792 181.288 159.352C182.099 158.906 182.973 158.683 183.909 158.683C184.406 158.683 184.811 158.714 185.126 158.777C185.447 158.832 185.716 158.916 185.933 159.028V155.439C185.765 155.369 185.527 155.306 185.22 155.25C184.912 155.188 184.493 155.156 183.962 155.156C182.948 155.156 182.032 155.418 181.215 155.941C180.404 156.464 179.792 157.054 179.38 157.709H179.39L179.38 155.512H174.651V165.787Z" fill="white"/>
<path d="M186.211 160.671C186.211 162.38 186.913 163.708 188.318 164.657C189.73 165.606 191.667 166.08 194.127 166.08C196.287 166.08 197.936 165.808 199.076 165.264C200.215 164.713 201.022 163.907 201.498 162.847L197.576 162.125C197.346 162.327 196.954 162.512 196.402 162.68C195.85 162.84 195.078 162.92 194.085 162.92C193.037 162.92 192.226 162.739 191.653 162.376C191.086 162.007 190.803 161.459 190.803 160.733V160.2C190.803 159.621 191.079 159.16 191.632 158.819C192.191 158.477 192.988 158.306 194.022 158.306C195.266 158.306 196.095 158.459 196.507 158.766C196.919 159.073 197.126 159.474 197.126 159.97V159.771H188.56V161.225H201.571V160.336C201.571 158.766 200.928 157.5 199.642 156.538C198.356 155.575 196.528 155.094 194.158 155.094C191.726 155.094 189.793 155.582 188.36 156.559C186.927 157.528 186.211 158.836 186.211 160.482V160.671Z" fill="white"/>
<path d="M202.258 162.334V162.669C202.293 163.778 202.95 164.626 204.229 165.212C205.508 165.798 207.346 166.091 209.744 166.091C212.099 166.091 213.899 165.78 215.143 165.16C216.394 164.532 217.02 163.618 217.02 162.418C217.02 161.476 216.59 160.761 215.73 160.273C214.878 159.778 213.025 159.439 210.174 159.258C208.706 159.16 207.776 159.038 207.385 158.892C207 158.738 206.808 158.543 206.808 158.306C206.808 158.076 206.997 157.908 207.374 157.804C207.759 157.699 208.454 157.647 209.461 157.647C210.53 157.647 211.327 157.73 211.851 157.898C212.382 158.065 212.648 158.334 212.648 158.704V158.85H216.601V158.515C216.601 157.49 216 156.663 214.797 156.035C213.595 155.408 211.907 155.094 209.733 155.094C207.476 155.094 205.728 155.376 204.491 155.941C203.254 156.499 202.635 157.34 202.635 158.463C202.635 159.467 203.03 160.242 203.82 160.786C204.61 161.323 206.396 161.686 209.178 161.874C210.527 161.958 211.421 162.083 211.862 162.251C212.309 162.411 212.533 162.627 212.533 162.899C212.533 163.171 212.306 163.367 211.851 163.485C211.397 163.604 210.621 163.663 209.524 163.663C208.524 163.663 207.724 163.597 207.122 163.464C206.521 163.325 206.221 163.028 206.221 162.575V162.397L202.258 162.334Z" fill="white"/>
<path d="M217.718 162.711C217.718 163.722 218.12 164.511 218.923 165.076C219.734 165.641 220.884 165.923 222.373 165.923C223.806 165.923 224.977 165.756 225.885 165.421C226.794 165.079 227.433 164.689 227.804 164.249C227.832 164.612 227.877 164.912 227.94 165.149C228.003 165.386 228.104 165.599 228.244 165.787H232.879V165.651C232.71 165.407 232.585 165.118 232.501 164.783C232.424 164.448 232.385 164.092 232.385 163.715V158.986C232.385 157.647 231.862 156.667 230.813 156.046C229.764 155.425 228.073 155.115 225.738 155.115C223.544 155.115 221.842 155.46 220.632 156.15C219.423 156.841 218.819 157.723 218.819 158.798V159.059L222.96 159.08V158.829C222.96 158.466 223.149 158.187 223.526 157.992C223.904 157.797 224.505 157.699 225.33 157.699C226.238 157.699 226.867 157.779 227.217 157.94C227.566 158.093 227.741 158.316 227.741 158.609V159.572L222.971 159.541C221.251 159.527 219.944 159.795 219.049 160.346C218.162 160.897 217.718 161.685 217.718 162.711ZM222.278 162.355C222.278 161.992 222.467 161.748 222.845 161.623C223.222 161.497 223.82 161.438 224.638 161.445L227.741 161.466V161.895C227.741 162.404 227.402 162.805 226.724 163.098C226.046 163.384 225.298 163.527 224.48 163.527C223.732 163.527 223.177 163.429 222.813 163.234C222.457 163.032 222.278 162.739 222.278 162.355Z" fill="white"/>
<path d="M234.268 165.798H238.902V160.127C239.118 159.736 239.468 159.394 239.951 159.101C240.439 158.801 240.988 158.651 241.596 158.651C242.316 158.651 242.848 158.815 243.19 159.143C243.539 159.471 243.717 159.949 243.725 160.577V165.798H248.369V160.053C248.586 159.677 248.905 159.349 249.323 159.07C249.75 158.791 250.306 158.651 250.991 158.651C251.739 158.651 252.291 158.812 252.647 159.133C253.003 159.446 253.185 159.917 253.192 160.545V165.798H257.848V159.53C257.848 158.072 257.408 156.97 256.527 156.224C255.646 155.47 254.513 155.094 253.13 155.094C251.899 155.094 250.851 155.31 249.984 155.742C249.125 156.168 248.422 156.715 247.877 157.385C247.646 156.743 247.175 156.203 246.461 155.763C245.755 155.324 244.864 155.104 243.787 155.104C242.655 155.104 241.663 155.317 240.81 155.742C239.957 156.168 239.307 156.733 238.86 157.437H238.85L238.839 155.512H234.268V165.798Z" fill="white"/>
<path d="M258.954 162.711C258.954 163.722 259.356 164.511 260.16 165.076C260.971 165.641 262.121 165.923 263.609 165.923C265.042 165.923 266.212 165.756 267.122 165.421C268.03 165.079 268.67 164.689 269.04 164.249C269.068 164.612 269.114 164.912 269.176 165.149C269.239 165.386 269.341 165.599 269.481 165.787H274.115V165.651C273.947 165.407 273.821 165.118 273.737 164.783C273.66 164.448 273.621 164.092 273.621 163.715V158.986C273.621 157.647 273.098 156.667 272.049 156.046C271.001 155.425 269.309 155.115 266.975 155.115C264.779 155.115 263.078 155.46 261.868 156.15C260.659 156.841 260.055 157.723 260.055 158.798V159.059L264.196 159.08V158.829C264.196 158.466 264.385 158.187 264.763 157.992C265.14 157.797 265.741 157.699 266.566 157.699C267.474 157.699 268.103 157.779 268.453 157.94C268.802 158.093 268.977 158.316 268.977 158.609V159.572L264.207 159.541C262.488 159.527 261.18 159.795 260.285 160.346C259.397 160.897 258.954 161.685 258.954 162.711ZM263.515 162.355C263.515 161.992 263.704 161.748 264.08 161.623C264.458 161.497 265.056 161.438 265.874 161.445L268.977 161.466V161.895C268.977 162.404 268.639 162.805 267.96 163.098C267.282 163.384 266.535 163.527 265.717 163.527C264.968 163.527 264.412 163.429 264.049 163.234C263.693 163.032 263.515 162.739 263.515 162.355Z" fill="white"/>
</g>
</g>
<defs>
<filter id="filter0_f_262_24724" x="6.78915" y="-144.179" width="855.484" height="944.359" filterUnits="userSpaceOnUse" color-interpolation-filters="sRGB">
<feFlood flood-opacity="0" result="BackgroundImageFix"/>
<feBlend mode="normal" in="SourceGraphic" in2="BackgroundImageFix" result="shape"/>
<feGaussianBlur stdDeviation="157.09" result="effect1_foregroundBlur_262_24724"/>
</filter>
<linearGradient id="paint0_linear_262_24724" x1="548.094" y1="170" x2="548.094" y2="486" gradientUnits="userSpaceOnUse">
<stop stop-color="#A166CF"/>
<stop offset="0.479167" stop-color="#6509E6"/>
<stop offset="0.908326" stop-color="#FFE662"/>
</linearGradient>
<clipPath id="clip0_262_24724">
<rect width="414" height="655" fill="white"/>
</clipPath>
<clipPath id="clip1_262_24724">
<rect width="107.005" height="17.6084" fill="white" transform="translate(169.819 469.429)"/>
</clipPath>
<clipPath id="clip2_262_24724">
<rect width="133.417" height="14.2221" fill="white" transform="translate(95.9999 316.372)"/>
</clipPath>
<clipPath id="clip3_262_24724">
<rect width="164.57" height="22.3491" fill="white" transform="translate(109.544 147.061)"/>
</clipPath>
</defs>
</svg>
