<svg width="946" height="946" viewBox="0 0 946 946" fill="none" xmlns="http://www.w3.org/2000/svg">
<g filter="url(#filter0_f_262_20561)">
<circle cx="473" cy="473" r="158" fill="url(#paint0_linear_262_20561)"/>
</g>
<g clip-path="url(#clip0_262_20561)">
<g style="mix-blend-mode:overlay" opacity="0.4">
<g style="mix-blend-mode:overlay" opacity="0.6">
<path fill-rule="evenodd" clip-rule="evenodd" d="M472.56 417.77V160H471.631V417.77H472.56ZM459.465 517.481L392.755 766.445L391.858 766.205L458.576 517.211C458.871 517.304 459.167 517.394 459.465 517.481ZM472.56 519.351C472.249 519.351 471.94 519.348 471.631 519.342V776.745H472.56V519.351ZM485.886 517.413C486.183 517.324 486.479 517.232 486.774 517.138L553.511 766.204L552.614 766.445L485.886 517.413ZM497.904 511.826L627.097 735.593L627.901 735.129L498.678 511.307C498.422 511.483 498.164 511.655 497.904 511.826ZM507.714 503.174L691.055 686.516L691.712 685.859L508.311 502.457C508.114 502.698 507.915 502.937 507.714 503.174ZM514.556 492.319L740.133 622.556L740.598 621.752L514.928 491.461C514.807 491.749 514.683 492.035 514.556 492.319ZM517.989 480.283L770.985 548.074L771.226 547.176L518.107 479.353C518.071 479.664 518.031 479.974 517.989 480.283ZM518 468.144H781.508V467.215H517.865C517.913 467.524 517.958 467.833 518 468.144ZM514.906 456.831L770.985 388.215L770.745 387.318L514.532 455.97C514.66 456.255 514.785 456.543 514.906 456.831ZM509.226 447.047L740.133 313.733L739.669 312.928L508.65 446.308C508.844 446.552 509.036 446.799 509.226 447.047ZM501.61 439.219L691.055 249.773L690.399 249.116L500.876 438.639C501.123 438.83 501.368 439.023 501.61 439.219ZM492.656 433.553L627.096 200.696L626.292 200.231L491.812 433.158C492.095 433.287 492.376 433.419 492.656 433.553ZM482.868 430.139L552.614 169.844L551.717 169.604L481.959 429.943C482.263 430.006 482.566 430.071 482.868 430.139ZM463.398 429.895L393.653 169.603L392.755 169.844L462.487 430.087C462.789 430.02 463.093 429.956 463.398 429.895ZM453.506 433.068L319.078 200.231L318.274 200.695L452.66 433.46C452.941 433.326 453.223 433.195 453.506 433.068ZM444.384 438.53L254.97 249.116L254.313 249.773L443.648 439.108C443.891 438.913 444.137 438.72 444.384 438.53ZM436.549 446.209L205.7 312.928L205.236 313.733L435.97 446.947C436.161 446.699 436.354 446.453 436.549 446.209ZM430.615 455.91L174.625 387.317L174.384 388.215L430.239 456.771C430.361 456.482 430.486 456.195 430.615 455.91ZM427.255 467.215H163.861V468.144H427.119C427.161 467.833 427.207 467.524 427.255 467.215ZM427.021 479.418L174.144 547.177L174.384 548.074L427.14 480.348C427.097 480.039 427.057 479.729 427.021 479.418ZM430.241 491.577L204.771 621.752L205.236 622.556L430.614 492.434C430.487 492.15 430.362 491.864 430.241 491.577ZM436.921 502.594L253.656 685.859L254.313 686.515L437.521 503.308C437.318 503.072 437.119 502.834 436.921 502.594ZM446.621 511.43L317.468 735.129L318.273 735.594L447.397 511.944C447.137 511.775 446.878 511.603 446.621 511.43Z" fill="white"/>
</g>
</g>
<g style="mix-blend-mode:overlay">
<circle opacity="0.5" cx="472.685" cy="469.499" r="173.587" stroke="white" stroke-width="0.92905"/>
<circle opacity="0.5" cx="472.657" cy="469.499" r="308.416" transform="rotate(-45 472.657 469.499)" stroke="white" stroke-width="0.92905"/>
</g>
<circle cx="205.173" cy="314.41" r="5.41795" fill="#FCD55F"/>
<circle cx="174.697" cy="388.907" r="5.41795" fill="#FCD55F"/>
<circle cx="163.861" cy="468.822" r="5.41795" fill="#FCD55F"/>
<circle cx="174.697" cy="548.737" r="5.41795" fill="#FCD55F"/>
<circle cx="205.173" cy="623.233" r="5.41795" fill="#FCD55F"/>
<g clip-path="url(#clip1_262_20561)">
<path d="M79.4434 616.265C78.2348 621.518 77.0268 626.776 75.8193 632.037C77.25 631.959 78.6813 631.886 80.113 631.816C80.4723 630.204 80.8305 628.594 81.1877 626.986C83.6824 626.729 86.1802 626.487 88.6813 626.259C89.2999 622.718 89.9212 619.178 90.5452 615.638C86.843 615.816 83.1424 616.025 79.4434 616.265V616.265ZM85.3219 622.166C84.2803 622.273 83.2391 622.383 82.1985 622.495C82.3792 621.713 82.5583 620.931 82.7358 620.149C83.7286 620.119 84.7224 620.092 85.7173 620.066C85.5866 620.767 85.4548 621.467 85.3219 622.166V622.166ZM91.5401 615.481C90.6079 620.689 89.6757 625.901 88.7435 631.116C92.7369 630.884 96.7325 630.687 100.73 630.526C101.368 625.368 102.01 620.211 102.656 615.053C98.9497 615.165 95.2444 615.308 91.5401 615.481V615.481ZM97.0248 625.972C95.9353 626.065 94.8463 626.161 93.7579 626.259L94.8739 619.439C95.872 619.42 96.8701 619.403 97.8682 619.388L97.0248 625.972ZM111.167 621.323C109.968 619.152 108.769 616.984 107.57 614.817C106.227 614.864 104.883 614.914 103.539 614.968C102.917 620.121 102.296 625.274 101.677 630.428C103.192 630.386 104.706 630.349 106.22 630.317C106.392 628.258 106.565 626.198 106.738 624.14C107.945 626.192 109.153 628.246 110.36 630.301C111.807 630.203 113.253 630.109 114.699 630.019C115.043 624.889 115.388 619.758 115.733 614.628C114.412 614.616 113.091 614.609 111.77 614.607L111.167 621.323ZM116.755 614.716L115.745 630.035C117.266 630.013 118.785 629.994 120.303 629.98C122.789 629.11 125.275 628.255 127.76 627.415C127.76 623.089 127.756 618.76 127.749 614.429C124.086 614.495 120.421 614.591 116.755 614.716ZM120.54 618.825C121.547 618.774 122.553 618.725 123.557 618.678C123.541 620.459 123.526 622.241 123.511 624.021C122.414 624.467 121.318 624.92 120.223 625.381C120.328 623.195 120.434 621.01 120.54 618.825V618.825ZM134.283 618.376C135.791 618.308 137.3 618.243 138.809 618.182C138.772 616.973 138.736 615.764 138.701 614.553C135.364 614.524 132.023 614.519 128.678 614.54C128.7 615.97 128.719 617.4 128.737 618.832C130.555 620.903 132.37 622.982 134.182 625.07C132.365 625.138 130.547 625.214 128.731 625.297C128.754 626.878 128.779 628.459 128.804 630.04C132.726 629.933 136.649 629.863 140.571 629.83L140.402 625.341C138.363 623.007 136.323 620.686 134.283 618.376V618.376ZM140.845 614.525L141.682 630.035C143.127 630.098 144.571 630.164 146.016 630.234C145.933 628.871 145.851 627.509 145.77 626.147C146.862 626.197 147.955 626.251 149.048 626.307L149.412 630.098C150.834 630.174 152.257 630.256 153.68 630.343L151.992 614.91C148.277 614.751 144.561 614.623 140.845 614.525ZM145.335 618.735C146.343 618.798 147.35 618.863 148.356 618.929L148.615 621.655C147.579 621.664 146.545 621.677 145.512 621.692L145.335 618.735ZM163.044 615.418C162.263 616.98 161.482 618.543 160.702 620.108C159.448 618.412 158.195 616.719 156.942 615.03C155.6 614.979 154.257 614.931 152.913 614.888L154.616 630.336C156.136 630.413 157.654 630.495 159.171 630.58L158.262 624.382C159.493 625.955 160.725 627.532 161.956 629.112L162.033 629.214C162.816 627.75 163.618 626.255 164.399 624.792C164.688 626.862 164.977 628.932 165.265 631.005C166.778 631.066 168.292 631.132 169.804 631.202C168.895 626.014 167.986 620.827 167.078 615.641C165.732 615.563 164.387 615.489 163.044 615.418V615.418ZM179.179 616.364C175.466 616.056 171.751 615.78 168.034 615.534C168.972 620.753 169.91 625.973 170.848 631.196C172.295 631.319 173.742 631.447 175.188 631.581L174.423 627.451C175.517 627.546 176.611 627.643 177.704 627.744L178.549 631.592C179.975 631.732 181.4 631.875 182.824 632.021C181.609 626.796 180.394 621.577 179.179 616.364V616.364ZM176.676 623.038C175.649 623.006 174.622 622.976 173.594 622.949C173.409 621.951 173.225 620.955 173.041 619.959C174.052 620.066 175.061 620.172 176.07 620.279C176.272 621.197 176.474 622.117 176.676 623.038V623.038Z" fill="white"/>
</g>
<path d="M26.4329 545.716C24.6034 543.864 22.7729 541.963 20.9416 540.014L18.2538 539.932V553.285L21.8563 553.175V546.125C23.3847 547.697 24.9102 549.236 26.4329 550.744C27.9518 549.178 29.4707 547.644 30.9897 546.142V552.91L34.6148 552.82V540.38L31.9214 540.316C30.0937 542.079 28.2642 543.879 26.4329 545.716ZM36.1281 552.8C41.1366 552.685 46.1461 552.591 51.1565 552.518V540.75C46.1461 540.671 41.1366 540.577 36.1281 540.468V552.8ZM39.7334 543.618L47.5511 543.691V549.557L39.7334 549.633V543.618ZM52.6698 552.484C57.682 552.409 62.6925 552.352 67.701 552.312V540.936C62.6906 540.896 57.6802 540.839 52.6698 540.764V552.484ZM56.2751 543.756L64.0956 543.801V549.441C61.4869 549.453 58.8801 549.468 56.2751 549.486V543.756ZM80.1799 547.419C77.447 545.265 74.7131 543.097 71.9783 540.916L69.234 540.899V552.312L72.8366 552.29V545.806C75.5733 547.965 78.31 550.111 81.0467 552.244H83.7938V540.964H80.1884L80.1799 547.419ZM88.887 543.852C92.3314 543.852 95.7768 543.844 99.2231 543.829V540.953C94.5759 540.985 89.9288 541.002 85.2816 541.004V547.177L95.6968 548.488V549.314H85.1659V552.242C89.8714 552.242 94.5825 552.259 99.2993 552.292V546.046L88.887 544.766V543.852ZM107.408 540.832C105.042 543.951 102.676 547.032 100.31 550.076V552.312C105.768 552.352 111.227 552.413 116.685 552.495V550.186C114.319 547.009 111.954 543.883 109.59 540.809L107.408 540.832ZM105.307 549.21C106.363 547.834 107.419 546.45 108.475 545.059C109.542 546.443 110.61 547.837 111.679 549.241L105.307 549.21ZM125.72 545.772C123.886 544.045 122.055 542.345 120.226 540.674L117.538 540.716V552.498C118.741 552.515 119.942 552.535 121.143 552.557V546.176C122.668 547.591 124.193 549.029 125.72 550.488C127.239 549.072 128.758 547.63 130.277 546.162V552.732L133.902 552.814V540.406L131.211 540.468C129.389 542.269 127.559 544.037 125.72 545.772ZM144.029 540.124L141.858 540.186C139.492 543.692 137.127 547.098 134.763 550.403V552.837C140.221 552.966 145.675 553.117 151.124 553.288V550.676C148.758 547.04 146.393 543.523 144.029 540.124V540.124ZM139.771 549.492C140.825 547.977 141.88 546.441 142.936 544.884C144.003 546.426 145.071 547.988 146.138 549.571L139.771 549.492Z" fill="white"/>
<path fill-rule="evenodd" clip-rule="evenodd" d="M119.912 567.983V556.703H49.8945V567.983H119.912ZM62.1053 563.764H62.1052C62.0315 563.764 61.9384 563.761 61.8257 563.757C61.796 563.756 61.765 563.754 61.7326 563.753C61.5678 563.744 61.4043 563.72 61.2441 563.68C61.0711 563.637 60.9062 563.567 60.7557 563.471C60.5984 563.371 60.4684 563.233 60.3774 563.071C60.2707 562.867 60.22 562.638 60.2306 562.408V562.281C60.22 562.051 60.2707 561.822 60.3774 561.618C60.4646 561.445 60.5949 561.298 60.7557 561.19C60.9065 561.096 61.0714 561.028 61.2441 560.987C61.4042 560.946 61.5677 560.921 61.7326 560.911H62.5174C62.7013 560.923 62.8831 560.956 63.0595 561.009C63.248 561.068 63.4228 561.164 63.5733 561.291C63.7365 561.429 63.8554 561.611 63.915 561.816H65.3746C65.3432 561.518 65.2417 561.231 65.0783 560.98C64.9149 560.728 64.6943 560.519 64.4345 560.369C63.8924 560.04 63.116 559.876 62.1052 559.876C60.9947 559.876 60.1685 560.073 59.6264 560.468C59.3563 560.665 59.14 560.927 58.997 561.23C58.8541 561.532 58.7889 561.865 58.8076 562.199V562.459C58.7884 562.793 58.8533 563.126 58.9963 563.429C59.1394 563.731 59.356 563.993 59.6264 564.19C60.1685 564.585 60.9947 564.783 62.1052 564.783C63.116 564.784 63.8924 564.62 64.4345 564.289C64.6943 564.139 64.9149 563.93 65.0783 563.678C65.2417 563.427 65.3432 563.14 65.3746 562.842H63.915C63.8554 563.047 63.7365 563.229 63.5733 563.367C63.4228 563.494 63.248 563.59 63.0595 563.649C62.8831 563.702 62.7013 563.735 62.5174 563.748C62.3424 563.764 62.2069 563.764 62.1053 563.764ZM73.0342 564.687L70.5243 560.008H68.4407L65.928 564.687H67.5175L68.0087 563.711H70.9591L71.4475 564.687H73.0342ZM69.4712 560.772L70.4763 562.761L68.4689 562.763L69.4712 560.772ZM80.0332 562.665C80.2355 562.383 80.3424 562.044 80.3381 561.697C80.341 561.398 80.2609 561.105 80.1066 560.849C79.959 560.596 79.749 560.385 79.4967 560.237C79.2406 560.085 78.9477 560.006 78.6497 560.008H74.0308V564.687H75.4622V563.384H77.8903L78.8304 564.687H80.3381L79.2426 563.277C79.5608 563.155 79.8358 562.942 80.0332 562.665ZM75.4622 562.354V561.054H78.2601C78.388 561.056 78.5127 561.095 78.6185 561.167C78.7244 561.238 78.8068 561.339 78.8556 561.458C78.9043 561.576 78.9172 561.705 78.8927 561.831C78.8681 561.956 78.8072 562.072 78.7175 562.163C78.6588 562.225 78.5878 562.274 78.509 562.307C78.4303 562.34 78.3455 562.356 78.2601 562.354H75.4622ZM86.5154 564.687H88.3873V560.008H86.9756V563.279L84.1524 560.008H81.7582V564.687H83.1868V560.958L86.5154 564.687ZM96.4958 564.687L93.9831 560.008H91.8995L89.3867 564.687H90.9763L91.4675 563.711H94.415L94.9063 564.687H96.4958ZM92.9413 560.772L93.9379 562.761L91.9418 562.763L92.9413 560.772ZM103.537 562.149H100.279V562.913H102.106C102.035 563.105 101.912 563.273 101.75 563.398C101.598 563.511 101.427 563.595 101.245 563.646C101.073 563.694 100.897 563.724 100.719 563.736C100.553 563.753 100.409 563.753 100.321 563.753H99.9515C99.7858 563.744 99.6214 563.72 99.4603 563.68C99.2885 563.637 99.1245 563.568 98.9747 563.474C98.8166 563.375 98.6864 563.237 98.5963 563.074C98.4896 562.87 98.4381 562.643 98.4467 562.414V562.281C98.4377 562.051 98.4893 561.822 98.5963 561.618C98.6872 561.457 98.8173 561.321 98.9747 561.224C99.1247 561.131 99.2886 561.062 99.4603 561.021C99.6213 560.98 99.7857 560.954 99.9515 560.944H100.68C100.84 560.954 100.999 560.977 101.154 561.015C101.323 561.053 101.485 561.118 101.634 561.207C101.789 561.297 101.92 561.424 102.015 561.576H103.537C103.471 561.307 103.346 561.055 103.172 560.839C102.998 560.622 102.778 560.447 102.529 560.324C101.838 560.008 101.081 559.862 100.321 559.898C99.2109 559.898 98.3846 560.096 97.8425 560.49C97.5753 560.687 97.3609 560.946 97.2185 561.245C97.0761 561.544 97.0102 561.874 97.0266 562.205V562.464C97.0056 562.8 97.0694 563.134 97.2119 563.439C97.3545 563.743 97.5714 564.006 97.8425 564.204C98.3865 564.599 99.2127 564.797 100.321 564.797C101.377 564.797 102.162 564.532 102.676 564.001L102.761 564.667H103.537V562.149ZM106.637 560.944H110.996V560.008H105.208V564.689H110.996V563.748H106.637V562.794H110.996V561.9H106.637V560.944Z" fill="white"/>
<g clip-path="url(#clip2_262_20561)">
<path d="M10.2635 467.511L4.71744 461.393H2V475.594H5.64132V467.976L10.2635 473.063L14.8658 467.976V475.594H18.5271V461.393H15.8096L10.2635 467.511V467.511ZM19.6791 475.594H34.8574V461.432H19.6791V475.594ZM23.309 465.019H31.2047V472.007H23.309V465.019ZM35.9866 475.594H51.1649V461.432H35.9866V475.594ZM39.6393 465.019H47.535V472.007H39.6393V465.019ZM63.3606 469.518L55.08 461.372H52.3055V475.594H55.9468V467.49L64.2275 475.594H67.002V461.372H63.3606V469.518ZM71.8979 465.019H82.34V461.432H68.2595V469.212L78.7756 470.852V471.887H68.1425V475.594H82.417V467.793L71.8979 466.174V465.019V465.019ZM90.7233 461.372L83.5518 472.82V475.594H100.09V472.82L92.9189 461.372H90.7233ZM88.6018 471.725L91.8011 466.599L95.0375 471.725H88.6018ZM109.486 467.511L103.94 461.393H101.225V475.594H104.864V467.976L109.486 473.063L114.091 467.976V475.594H117.749V461.393H115.035L109.486 467.511ZM128.251 461.372H126.056L118.89 472.82V475.594H135.429V472.82L128.251 461.372ZM123.937 471.725L127.136 466.599L130.37 471.725H123.937Z" fill="white"/>
</g>
<path d="M111.153 378.071H96.7168L96.1525 381.834H110.589L111.153 378.071Z" fill="white"/>
<path d="M95.7605 384.446L95.2217 388.038L94.8459 390.543L94.2816 394.306H98.5283H108.718L109.282 390.543H99.0927L99.4684 388.038H109.658L110.197 384.446H100.007H95.7605Z" fill="white"/>
<path d="M125.799 388.156L130.014 394.324H124.861L122.318 390.404L121.536 389.198L121.438 389.298L119.038 391.744L117.114 393.705L116.507 394.324H111.375L119.336 386.21L113.794 378.071H118.907L122.361 383.125L127.32 378.071H132.452L126.594 384.043L124.916 385.753L124.468 386.21L125.062 387.077L125.07 387.088L125.799 388.156Z" fill="white"/>
<path d="M135.092 378.077L132.655 394.325H148.575L151.012 378.077H135.092ZM144.898 390.556H137.464L138.773 381.828H146.207L144.898 390.556Z" fill="white"/>
<g clip-path="url(#clip3_262_20561)">
<path fill-rule="evenodd" clip-rule="evenodd" d="M22.2814 292.061C18.5607 292.061 15.5446 295.041 15.5446 298.718V307.75C15.5446 311.427 18.5607 314.408 22.2814 314.408H31.4217C35.1424 314.408 38.1585 311.427 38.1585 307.75V298.718C38.1585 295.041 35.1424 292.061 31.4217 292.061H22.2814ZM25.9208 295.688L25.9526 295.682L26.4741 295.508C27.3934 295.557 28.9922 295.844 29.7819 296.215L29.6934 296.072C29.9917 296.202 30.2783 296.358 30.5501 296.537L30.5091 296.356C31.1655 296.723 31.7378 297.222 32.1896 297.822L32.2659 297.551C33.3014 298.677 33.4452 299.721 33.4856 300.015C33.4925 300.064 33.4963 300.092 33.501 300.096L33.6781 299.834C34.2064 300.706 34.0593 302.118 33.9231 302.35L34.3794 301.797C34.63 303.147 34.4788 304.55 33.949 305.509L34.3739 305.067C34.2759 305.93 34.028 306.314 34.0131 306.337L34.6109 305.957C34.3971 307.626 32.6893 308.832 32.6893 308.832L33.2028 308.79C32.7915 309.217 31.9282 309.582 31.9282 309.582H32.3448C30.3389 310.902 26.8228 310.902 26.8228 310.902C26.8228 310.902 23.3052 310.895 21.2993 309.582H21.716C21.716 309.582 20.8499 309.217 20.4414 308.79L20.9548 308.832C20.9548 308.832 19.2471 307.626 19.0333 305.957L19.6297 306.337C19.6134 306.314 19.3655 305.931 19.2675 305.067L19.6924 305.509C19.1694 304.55 19.006 303.147 19.262 301.797L19.7142 302.35C19.578 302.118 19.4418 300.706 19.9634 299.834L20.1404 300.096C20.1451 300.092 20.149 300.064 20.1558 300.015C20.1962 299.721 20.34 298.677 21.3756 297.555L21.4518 297.826C21.9044 297.226 22.4777 296.727 23.135 296.361L23.0941 296.541C23.3659 296.362 23.6525 296.206 23.9507 296.076L23.8581 296.225C24.3771 295.976 25.3284 295.798 25.9208 295.688ZM22.9049 306.128C23.3379 306.65 24.1305 306.474 24.1958 306.009C24.283 305.393 23.8445 304.973 23.2766 304.778C22.8354 304.645 22.3689 304.617 21.9148 304.696C21.9148 304.696 22.8109 304.756 22.9362 305.157C22.9362 305.157 22.5412 305.687 22.9049 306.128ZM26.9753 309.957C27.4908 309.726 27.9605 309.404 28.3616 309.008C28.7089 308.678 28.8804 308.431 28.8804 308.128C28.8751 307.992 28.8403 307.859 28.7783 307.737C28.6283 307.398 28.4079 307.093 28.1317 306.844C27.8555 306.595 27.5297 306.406 27.1755 306.291C26.9457 306.217 26.6984 306.217 26.4687 306.291C26.1145 306.406 25.7886 306.595 25.5125 306.844C25.2363 307.093 25.0159 307.398 24.8659 307.737C24.8044 307.858 24.7696 307.989 24.7637 308.124C24.7637 308.431 24.9367 308.678 25.2826 309.008C25.684 309.404 26.1535 309.726 26.6689 309.957C26.7671 309.997 26.877 309.997 26.9753 309.957ZM29.4538 306.009C29.5191 306.474 30.3117 306.65 30.7447 306.128C31.0635 305.734 30.7857 305.272 30.7275 305.175C30.7203 305.163 30.7164 305.157 30.7175 305.157C30.8427 304.756 31.7389 304.696 31.7389 304.696C31.2848 304.617 30.8183 304.645 30.3771 304.778C29.8052 304.973 29.3667 305.393 29.4538 306.009Z" fill="white"/>
<path d="M46.6389 310.787H51.4303V305.89H57.0921C58.8815 305.89 60.3004 305.412 61.3488 304.457C62.4043 303.501 62.9321 302.214 62.9321 300.595C62.9321 299.033 62.4253 297.802 61.4118 296.902C60.3982 296.002 58.9793 295.552 57.1551 295.552H46.6389V310.787ZM51.4303 302.772V298.984H55.8654C56.6064 298.984 57.1585 299.155 57.522 299.497C57.8924 299.839 58.0776 300.309 58.0776 300.909C58.0776 301.495 57.903 301.952 57.5535 302.28C57.2039 302.608 56.6413 302.772 55.8654 302.772H51.4303ZM58.7067 310.787H63.9805L59.3673 303.745L54.9323 304.415L58.7067 310.787Z" fill="white"/>
<path d="M64.1013 307.711C64.1013 308.722 64.5032 309.511 65.3071 310.076C66.1179 310.641 67.2677 310.923 68.7564 310.923C70.1895 310.923 71.3602 310.756 72.2688 310.421C73.1775 310.079 73.8171 309.689 74.1875 309.249C74.2155 309.612 74.2609 309.912 74.3238 310.149C74.3867 310.386 74.4881 310.599 74.6279 310.787H79.2621V310.651C79.0943 310.407 78.9686 310.118 78.8846 309.783C78.8077 309.448 78.7694 309.092 78.7694 308.715V303.986C78.7694 302.647 78.2451 301.667 77.1967 301.046C76.1482 300.425 74.4566 300.115 72.1221 300.115C69.9273 300.115 68.2253 300.46 67.0161 301.15C65.8068 301.841 65.2022 302.723 65.2022 303.798V304.059L69.3436 304.08V303.829C69.3436 303.466 69.5324 303.187 69.9098 302.992C70.2873 302.797 70.8884 302.699 71.7132 302.699C72.6218 302.699 73.251 302.779 73.6004 302.94C73.9499 303.093 74.1246 303.316 74.1246 303.609V304.572L69.3541 304.541C67.6346 304.527 66.3276 304.795 65.4329 305.346C64.5452 305.897 64.1013 306.685 64.1013 307.711ZM68.6621 307.355C68.6621 306.992 68.8509 306.748 69.2283 306.623C69.6058 306.497 70.2034 306.438 71.0212 306.445L74.1246 306.466V306.895C74.1246 307.404 73.7856 307.805 73.1076 308.098C72.4296 308.384 71.6817 308.527 70.8639 308.527C70.116 308.527 69.5603 308.429 69.1969 308.234C68.8404 308.032 68.6621 307.739 68.6621 307.355Z" fill="white"/>
<path d="M80.6516 310.787H85.4221V306.037C85.8554 305.353 86.4775 304.792 87.2883 304.352C88.0991 303.906 88.9729 303.683 89.9095 303.683C90.4058 303.683 90.8112 303.714 91.1258 303.777C91.4472 303.832 91.7163 303.916 91.933 304.028V300.439C91.7653 300.369 91.5276 300.306 91.2201 300.25C90.9125 300.188 90.4931 300.156 89.9619 300.156C88.9485 300.156 88.0327 300.418 87.2149 300.941C86.4041 301.464 85.7925 302.054 85.3801 302.709H85.3906L85.3801 300.512H80.6516V310.787Z" fill="white"/>
<path d="M92.2112 305.671C92.2112 307.38 92.9136 308.708 94.3186 309.657C95.7306 310.606 97.6667 311.08 100.127 311.08C102.287 311.08 103.936 310.808 105.076 310.264C106.215 309.713 107.023 308.907 107.498 307.847L103.577 307.125C103.346 307.327 102.954 307.512 102.402 307.68C101.85 307.84 101.078 307.92 100.085 307.92C99.0366 307.92 98.2258 307.739 97.6527 307.376C97.0865 307.007 96.8034 306.459 96.8034 305.733V305.2C96.8034 304.621 97.0795 304.16 97.6317 303.819C98.1909 303.477 98.9877 303.306 100.022 303.306C101.266 303.306 102.095 303.459 102.507 303.766C102.919 304.073 103.126 304.474 103.126 304.97V304.771H94.5597V306.225H107.571V305.336C107.571 303.766 106.928 302.5 105.642 301.538C104.356 300.575 102.528 300.094 100.159 300.094C97.7261 300.094 95.7933 300.582 94.3605 301.559C92.9276 302.528 92.2112 303.836 92.2112 305.482V305.671Z" fill="white"/>
<path d="M108.258 307.334V307.669C108.293 308.778 108.95 309.626 110.229 310.212C111.508 310.798 113.346 311.091 115.744 311.091C118.099 311.091 119.899 310.78 121.143 310.16C122.395 309.532 123.02 308.618 123.02 307.418C123.02 306.476 122.59 305.761 121.731 305.273C120.878 304.778 119.025 304.439 116.174 304.258C114.706 304.16 113.776 304.038 113.385 303.892C113 303.738 112.808 303.543 112.808 303.306C112.808 303.076 112.997 302.908 113.374 302.804C113.759 302.699 114.454 302.647 115.461 302.647C116.53 302.647 117.327 302.73 117.851 302.898C118.382 303.065 118.648 303.334 118.648 303.704V303.85H122.601V303.515C122.601 302.49 122 301.663 120.797 301.035C119.595 300.408 117.907 300.094 115.733 300.094C113.476 300.094 111.728 300.376 110.491 300.941C109.254 301.499 108.635 302.34 108.635 303.463C108.635 304.467 109.03 305.242 109.82 305.786C110.61 306.323 112.396 306.686 115.178 306.874C116.527 306.958 117.421 307.083 117.862 307.251C118.309 307.411 118.533 307.627 118.533 307.899C118.533 308.171 118.306 308.367 117.851 308.485C117.397 308.604 116.621 308.663 115.524 308.663C114.524 308.663 113.724 308.597 113.123 308.464C112.522 308.325 112.221 308.028 112.221 307.575V307.397L108.258 307.334Z" fill="white"/>
<path d="M123.718 307.711C123.718 308.722 124.12 309.511 124.924 310.076C125.734 310.641 126.884 310.923 128.373 310.923C129.806 310.923 130.977 310.756 131.885 310.421C132.794 310.079 133.434 309.689 133.804 309.249C133.832 309.612 133.877 309.912 133.94 310.149C134.003 310.386 134.105 310.599 134.244 310.787H138.879V310.651C138.71 310.407 138.585 310.118 138.501 309.783C138.424 309.448 138.385 309.092 138.385 308.715V303.986C138.385 302.647 137.862 301.667 136.813 301.046C135.765 300.425 134.073 300.115 131.739 300.115C129.544 300.115 127.842 300.46 126.633 301.15C125.423 301.841 124.819 302.723 124.819 303.798V304.059L128.96 304.08V303.829C128.96 303.466 129.149 303.187 129.526 302.992C129.904 302.797 130.505 302.699 131.33 302.699C132.238 302.699 132.867 302.779 133.217 302.94C133.566 303.093 133.741 303.316 133.741 303.609V304.572L128.971 304.541C127.251 304.527 125.944 304.795 125.049 305.346C124.162 305.897 123.718 306.685 123.718 307.711ZM128.279 307.355C128.279 306.992 128.467 306.748 128.845 306.623C129.222 306.497 129.82 306.438 130.638 306.445L133.741 306.466V306.895C133.741 307.404 133.402 307.805 132.724 308.098C132.046 308.384 131.298 308.527 130.48 308.527C129.733 308.527 129.177 308.429 128.813 308.234C128.457 308.032 128.279 307.739 128.279 307.355Z" fill="white"/>
<path d="M140.268 310.798H144.902V305.127C145.118 304.736 145.468 304.394 145.951 304.101C146.439 303.801 146.988 303.651 147.596 303.651C148.316 303.651 148.848 303.815 149.19 304.143C149.539 304.471 149.717 304.949 149.725 305.577V310.798H154.369V305.053C154.586 304.677 154.905 304.349 155.323 304.07C155.75 303.791 156.306 303.651 156.991 303.651C157.739 303.651 158.291 303.812 158.647 304.133C159.003 304.446 159.185 304.917 159.192 305.545V310.798H163.848V304.53C163.848 303.072 163.408 301.97 162.527 301.224C161.646 300.47 160.513 300.094 159.13 300.094C157.899 300.094 156.851 300.31 155.984 300.742C155.125 301.168 154.422 301.715 153.877 302.385C153.646 301.743 153.175 301.203 152.461 300.763C151.755 300.324 150.864 300.104 149.787 300.104C148.655 300.104 147.663 300.317 146.81 300.742C145.957 301.168 145.307 301.733 144.86 302.437H144.85L144.839 300.512H140.268V310.798Z" fill="white"/>
<path d="M164.955 307.711C164.955 308.722 165.356 309.511 166.16 310.076C166.971 310.641 168.121 310.923 169.609 310.923C171.042 310.923 172.212 310.756 173.122 310.421C174.03 310.079 174.67 309.689 175.041 309.249C175.068 309.612 175.114 309.912 175.176 310.149C175.239 310.386 175.341 310.599 175.481 310.787H180.115V310.651C179.948 310.407 179.821 310.118 179.737 309.783C179.66 309.448 179.622 309.092 179.622 308.715V303.986C179.622 302.647 179.098 301.667 178.049 301.046C177.001 300.425 175.309 300.115 172.975 300.115C170.78 300.115 169.078 300.46 167.868 301.15C166.659 301.841 166.055 302.723 166.055 303.798V304.059L170.196 304.08V303.829C170.196 303.466 170.385 303.187 170.763 302.992C171.14 302.797 171.741 302.699 172.566 302.699C173.474 302.699 174.103 302.779 174.453 302.94C174.802 303.093 174.977 303.316 174.977 303.609V304.572L170.207 304.541C168.488 304.527 167.18 304.795 166.285 305.346C165.397 305.897 164.955 306.685 164.955 307.711ZM169.515 307.355C169.515 306.992 169.704 306.748 170.081 306.623C170.458 306.497 171.056 306.438 171.874 306.445L174.977 306.466V306.895C174.977 307.404 174.639 307.805 173.96 308.098C173.282 308.384 172.535 308.527 171.717 308.527C170.968 308.527 170.413 308.429 170.049 308.234C169.693 308.032 169.515 307.739 169.515 307.355Z" fill="white"/>
</g>
</g>
<g clip-path="url(#clip4_262_20561)">
<path d="M521.546 493.849C522.481 491.973 523.014 489.924 523.112 487.83L520.32 491.538L521.877 483.872L518.923 487.329C518.923 487.329 519.416 485.027 519.738 483.747C520.06 482.466 521.385 476.735 521.385 476.735L520.49 477.729C520.49 477.729 520.982 473.52 521.313 470.564C521.441 467.975 521.303 465.379 520.901 462.818L518.682 465.209L519.344 458.618L518.19 458.86C517.858 454.579 516.4 444.442 516.4 444.442L515.164 446.994C513.115 439.74 506.787 434.223 506.787 434.223V437.635C503.637 432.692 496.817 427.829 496.817 427.829L497.712 430.05L491.716 427.005L492.047 427.829C492.047 427.829 484.493 425.187 481.701 424.534C478.909 423.88 472.993 423.128 472.993 423.128C472.993 423.128 467.077 423.871 464.285 424.534C461.492 425.196 453.93 427.829 453.93 427.829L454.261 427.005L448.264 430.05L449.159 427.829C449.159 427.829 442.339 432.692 439.216 437.68V434.179C439.216 434.179 432.897 439.695 430.839 446.949L429.613 444.397C429.613 444.397 428.127 454.534 427.823 458.815L426.668 458.573L427.331 465.164L425.075 462.773C424.673 465.334 424.535 467.93 424.664 470.52C424.995 473.484 425.487 477.684 425.487 477.684L424.592 476.69C424.592 476.69 425.916 482.377 426.239 483.702C426.561 485.027 427.062 487.284 427.062 487.284L424.109 483.827L425.666 491.493L422.874 487.83C422.971 489.923 423.501 491.972 424.431 493.849C425.916 496.535 426.982 498.461 426.982 498.461L424.35 496.669C424.35 496.669 427.93 502.768 431.09 505.41C434.249 508.052 434.294 508.867 434.294 508.867L432.074 509.037L439.878 513.9L438.24 514.553C438.24 514.553 445.552 518.843 446.698 519.031C447.844 519.219 452.283 520.294 452.283 520.294C451.134 520.677 449.958 520.977 448.765 521.189C451.958 521.871 455.194 522.334 458.449 522.577C462.226 522.667 472.993 523.401 472.993 523.401C472.993 523.401 483.733 522.667 487.536 522.577C490.792 522.334 494.027 521.87 497.22 521.189C496.025 520.976 494.846 520.677 493.694 520.294C493.694 520.294 498.169 519.139 499.287 518.968C500.406 518.798 507.745 514.491 507.745 514.491L506.107 513.837L513.912 508.974L511.692 508.804C511.692 508.804 511.692 507.98 514.896 505.347C518.1 502.714 521.635 496.607 521.635 496.607L519.004 498.398C519.004 498.398 520.069 496.562 521.546 493.849ZM450.842 496.195C445.749 495.12 447.924 487.419 447.924 487.419C446.456 486.263 442.796 485.189 442.796 485.189C451.343 484.293 454.959 487.875 456.597 489.89C458.234 491.905 455.943 497.261 450.851 496.195H450.842ZM472.322 518.709C468.026 518.709 459.64 508.052 459.64 508.052C459.64 508.052 462.101 494.887 473.011 494.887C483.921 494.887 486.382 508.052 486.382 508.052C486.382 508.052 476.6 518.709 472.304 518.709H472.322ZM498.052 487.419C498.052 487.419 500.227 495.12 495.135 496.195C490.042 497.269 487.742 491.869 489.38 489.926C491.018 487.983 494.642 484.365 503.19 485.224C503.19 485.189 499.529 486.263 498.052 487.419Z" fill="white"/>
</g>
<defs>
<filter id="filter0_f_262_20561" x="0.820526" y="0.820526" width="944.359" height="944.359" filterUnits="userSpaceOnUse" color-interpolation-filters="sRGB">
<feFlood flood-opacity="0" result="BackgroundImageFix"/>
<feBlend mode="normal" in="SourceGraphic" in2="BackgroundImageFix" result="shape"/>
<feGaussianBlur stdDeviation="157.09" result="effect1_foregroundBlur_262_20561"/>
</filter>
<linearGradient id="paint0_linear_262_20561" x1="631" y1="315" x2="631" y2="631" gradientUnits="userSpaceOnUse">
<stop stop-color="#A166CF"/>
<stop offset="0.479167" stop-color="#6509E6"/>
<stop offset="0.908326" stop-color="#FFE662"/>
</linearGradient>
<clipPath id="clip0_262_20561">
<rect width="576" height="608" fill="white" transform="translate(2 169)"/>
</clipPath>
<clipPath id="clip1_262_20561">
<rect width="107.005" height="17.6084" fill="white" transform="translate(75.8193 614.429)"/>
</clipPath>
<clipPath id="clip2_262_20561">
<rect width="133.417" height="14.2221" fill="white" transform="translate(2 461.372)"/>
</clipPath>
<clipPath id="clip3_262_20561">
<rect width="164.57" height="22.3491" fill="white" transform="translate(15.5446 292.061)"/>
</clipPath>
<clipPath id="clip4_262_20561">
<rect width="101.205" height="101.205" fill="white" transform="translate(422.39 422.68)"/>
</clipPath>
</defs>
</svg>
