<svg width="24" height="24" viewBox="0 0 24 24" fill="none" xmlns="http://www.w3.org/2000/svg">
<path fill-rule="evenodd" clip-rule="evenodd" d="M18.7992 13.3736C19.0272 13.8702 19.6987 14.0456 20.0851 13.6592L20.7937 12.9506C21.526 12.2184 22.7131 12.2184 23.4454 12.9506C24.1776 13.6828 24.1776 14.87 23.4454 15.6023L17.7184 21.3292C16.3426 22.9624 14.2824 24 11.9799 24C9.57873 24 7.44115 22.8716 6.06843 21.1162L0.55479 15.6026C-0.177443 14.8704 -0.177443 13.6832 0.55479 12.951C1.28702 12.2187 2.47421 12.2187 3.20644 12.951L3.9043 13.6488C4.28226 14.0268 4.93844 13.8568 5.16171 13.3711C5.20581 13.2751 5.22978 13.1722 5.22978 13.0666V4.49996C5.22978 3.46442 6.06925 2.62495 7.10478 2.62495C8.1403 2.62495 8.97978 3.46442 8.97978 4.49996V8.83365C8.97978 9.20655 9.36179 9.45967 9.71733 9.34728C9.94237 9.27618 10.1049 9.07128 10.1049 8.8353V1.875C10.1049 0.839463 10.9444 2.7e-07 11.9799 0C13.0155 -2.7375e-07 13.8549 0.839463 13.8549 1.875V8.83545C13.8549 9.0714 14.0175 9.27622 14.2424 9.34732C14.5979 9.45964 14.9798 9.20662 14.9798 8.83383V4.49996C14.9798 3.46442 15.8193 2.62496 16.8548 2.62495C17.8903 2.62495 18.7298 3.46442 18.7298 4.49996V13.063C18.7298 13.1708 18.7542 13.2757 18.7992 13.3736V13.3736Z" fill="#FD4848"/>
<path d="M17.98 17.25C17.98 17.25 15.2937 21 11.98 21C8.66629 21 5.97998 17.25 5.97998 17.25C5.97998 17.25 8.66629 13.5 11.98 13.5C15.2937 13.5 17.98 17.25 17.98 17.25Z" fill="#D5FF5C"/>
<path d="M14.792 17.25C14.792 18.803 13.533 20.062 11.98 20.062C10.427 20.062 9.16797 18.803 9.16797 17.25C9.16797 15.697 10.427 14.438 11.98 14.438C13.533 14.438 14.792 15.697 14.792 17.25Z" stroke="#FD4848" stroke-width="1.00258"/>
<path d="M13.667 17.2502C13.667 18.182 12.9117 18.9373 11.98 18.9373C11.0483 18.9373 10.293 18.182 10.293 17.2502C10.293 16.3185 11.0483 15.5632 11.98 15.5632C12.9117 15.5632 13.667 16.3185 13.667 17.2502Z" stroke="#FD4848" stroke-width="1.00258"/>
<path d="M15.917 17.25C15.917 19.4244 14.1543 21.187 11.98 21.187C9.80562 21.187 8.04297 19.4244 8.04297 17.25C8.04297 15.0756 9.80562 13.313 11.98 13.313C14.1543 13.313 15.917 15.0756 15.917 17.25Z" stroke="#FD4848" stroke-width="1.00258"/>
<path d="M17.042 17.25C17.042 20.0457 14.7756 22.3121 11.98 22.3121C9.18428 22.3121 6.91797 20.0457 6.91797 17.25C6.91797 14.4543 9.18428 12.188 11.98 12.188C14.7756 12.188 17.042 14.4543 17.042 17.25Z" stroke="#FD4848" stroke-width="1.00258"/>
<path d="M12.542 17.25C12.542 17.5604 12.2904 17.812 11.98 17.812C11.6696 17.812 11.418 17.5604 11.418 17.25C11.418 16.9396 11.6696 16.688 11.98 16.688C12.2904 16.688 12.542 16.9396 12.542 17.25Z" fill="#162BEB" stroke="#FD4848" stroke-width="1.00258"/>
<path d="M11.98 18C12.3942 18 12.73 17.6642 12.73 17.25C12.73 16.8358 12.3942 16.5 11.98 16.5C11.5658 16.5 11.23 16.8358 11.23 17.25C11.23 17.6642 11.5658 18 11.98 18Z" fill="#FD4848"/>
<path d="M6.25013 17.2956C6.23734 17.2792 6.22561 17.264 6.21484 17.25C6.22561 17.2361 6.23734 17.2208 6.25013 17.2044C6.32832 17.1041 6.44419 16.9601 6.59374 16.787C6.89299 16.4404 7.32589 15.9786 7.86016 15.5173C8.93457 14.5896 10.3912 13.688 11.9799 13.688C13.5687 13.688 15.0254 14.5896 16.0997 15.5173C16.634 15.9786 17.0669 16.4404 17.3662 16.787C17.5157 16.9601 17.6316 17.1041 17.7098 17.2044C17.7225 17.2208 17.7343 17.236 17.745 17.25C17.7343 17.264 17.7225 17.2792 17.7098 17.2956C17.6316 17.3959 17.5157 17.54 17.3662 17.7131C17.0669 18.0596 16.634 18.5214 16.0997 18.9827C15.0254 19.9104 13.5687 20.812 11.9799 20.812C10.3912 20.812 8.93457 19.9104 7.86016 18.9827C7.32589 18.5214 6.89299 18.0596 6.59374 17.7131C6.44419 17.54 6.32832 17.3959 6.25013 17.2956Z" stroke="#D5FF5C" stroke-width="1.00258"/>
</svg>
